<?xml version="1.0" standalone="no"?>
<!DOCTYPE svg PUBLIC "-//W3C//DTD SVG 20010904//EN"
 "http://www.w3.org/TR/2001/REC-SVG-20010904/DTD/svg10.dtd">
<svg version="1.0" xmlns="http://www.w3.org/2000/svg"
 width="4465.000000pt" height="4465.000000pt" viewBox="0 0 4465.000000 4465.000000"
 preserveAspectRatio="xMidYMid meet">
<metadata>
Created by potrace 1.11, written by Peter Selinger 2001-2013
</metadata>
<g transform="translate(0.000000,4465.000000) scale(0.100000,-0.100000)"
fill="#000000" stroke="none">
<path d="M4218 28694 c-2 -2 -44 -6 -93 -9 -50 -3 -103 -8 -120 -10 -16 -2
-61 -6 -100 -10 -38 -3 -77 -8 -85 -10 -8 -2 -35 -7 -60 -10 -66 -9 -96 -14
-185 -30 -44 -8 -93 -17 -110 -20 -60 -10 -383 -93 -483 -124 -388 -118 -797
-311 -1147 -539 -249 -162 -564 -431 -745 -637 -29 -33 -65 -73 -79 -90 -205
-233 -437 -625 -546 -920 -27 -73 -74 -215 -80 -244 -2 -9 -15 -61 -29 -116
-13 -55 -27 -118 -31 -139 -3 -21 -7 -48 -10 -60 -34 -159 -41 -655 -11 -811
2 -11 7 -42 10 -70 4 -27 9 -57 11 -65 2 -8 7 -31 10 -50 7 -46 52 -223 71
-280 108 -330 261 -608 489 -893 86 -106 303 -333 401 -418 95 -82 157 -134
178 -148 12 -8 23 -17 26 -21 3 -3 41 -32 85 -65 398 -297 954 -609 1560 -875
28 -12 64 -28 80 -35 97 -43 137 -60 305 -130 102 -43 394 -160 650 -262 256
-101 479 -191 497 -199 17 -8 34 -14 37 -14 3 0 25 -9 49 -19 23 -10 116 -49
207 -87 303 -124 592 -254 855 -385 245 -122 294 -147 462 -243 211 -120 498
-321 658 -459 90 -79 259 -248 310 -312 22 -27 42 -52 45 -55 13 -12 111 -150
139 -195 60 -99 151 -292 185 -396 37 -112 70 -261 82 -369 14 -127 7 -500
-10 -529 -2 -3 -6 -28 -10 -56 -25 -216 -165 -560 -320 -790 -85 -125 -90
-132 -197 -254 -159 -182 -447 -418 -644 -527 -11 -6 -49 -28 -85 -48 -187
-105 -444 -214 -680 -289 -181 -58 -468 -127 -586 -142 -27 -4 -56 -8 -64 -10
-8 -2 -35 -7 -60 -10 -25 -3 -56 -8 -70 -10 -14 -2 -54 -6 -90 -10 -36 -3 -81
-8 -100 -10 -206 -24 -904 -24 -1028 0 -9 1 -55 6 -102 10 -47 4 -94 9 -105
11 -11 2 -45 6 -75 9 -30 3 -65 7 -78 10 -13 2 -56 9 -95 15 -40 5 -88 13
-107 16 -63 10 -324 63 -360 73 -19 5 -89 24 -155 41 -152 40 -419 125 -500
159 -11 5 -87 37 -170 72 -300 125 -563 275 -815 463 -117 88 -261 218 -372
336 l-94 101 -104 -3 -103 -3 53 -65 c90 -110 324 -338 426 -415 21 -16 48
-37 59 -47 179 -152 595 -392 915 -526 339 -143 784 -278 1120 -341 30 -6 65
-12 76 -15 12 -2 39 -7 60 -10 22 -4 68 -11 104 -17 36 -6 74 -12 85 -14 24
-3 107 -14 150 -20 93 -12 285 -32 390 -40 90 -7 439 -18 555 -18 130 0 443
11 495 17 17 2 71 7 120 11 50 4 97 8 105 10 8 1 49 6 90 10 41 4 82 9 90 10
8 1 40 6 70 10 30 4 93 13 140 21 47 9 99 17 117 20 117 16 451 98 652 160
1365 423 2268 1311 2505 2464 14 69 28 148 31 175 28 230 32 292 30 495 -2
240 -5 275 -36 470 -128 796 -596 1444 -1429 1981 -161 103 -261 163 -370 222
-30 16 -59 33 -65 37 -47 35 -543 272 -818 390 -119 52 -214 97 -210 100 5 4
51 24 103 45 464 187 807 515 962 920 29 74 63 196 72 255 3 19 8 46 10 60 16
92 22 276 11 380 -25 235 -99 447 -223 635 -231 348 -653 651 -1312 940 -85
37 -168 73 -185 81 -81 35 -225 94 -230 94 -3 0 -24 9 -48 19 -23 11 -99 42
-168 70 -759 300 -1159 539 -1365 814 -76 102 -130 211 -150 301 -11 47 -14
62 -19 86 -7 34 -7 196 0 245 6 35 17 89 30 135 19 73 70 178 128 265 57 86
208 231 307 297 123 82 327 178 430 203 8 3 40 11 70 20 30 8 69 17 85 20 17
3 37 8 45 10 8 2 33 7 55 10 23 3 52 7 65 10 125 24 546 25 680 1 14 -3 50 -7
81 -11 31 -3 67 -8 80 -10 13 -3 38 -8 54 -11 57 -10 200 -44 273 -64 89 -25
292 -99 309 -112 13 -10 179 -6 189 5 7 6 -157 91 -257 132 -57 24 -281 101
-319 110 -8 2 -40 10 -70 18 -54 14 -220 53 -270 62 -81 16 -168 30 -240 40
-25 4 -58 8 -75 11 -16 2 -50 6 -75 8 -95 9 -167 17 -210 22 -49 6 -637 14
-642 8z m-808 -459 c0 -3 -19 -17 -42 -32 -108 -69 -254 -201 -346 -311 -147
-177 -268 -427 -298 -617 -1 -11 -5 -31 -8 -44 -20 -91 -26 -296 -13 -423 27
-255 143 -518 324 -736 122 -146 314 -312 518 -445 291 -189 532 -305 1400
-674 814 -346 1189 -599 1367 -924 33 -58 75 -180 85 -244 9 -60 9 -224 0
-282 -52 -331 -268 -600 -632 -785 l-51 -26 -194 74 c-107 41 -204 79 -215 84
-11 5 -135 52 -275 105 -1162 442 -1815 748 -2337 1096 -120 80 -253 175 -268
193 -5 6 -21 19 -35 27 -45 29 -132 110 -275 254 -202 203 -329 379 -434 597
-75 158 -146 380 -156 490 -2 20 -5 41 -8 45 -7 12 -20 207 -20 293 1 78 10
220 17 255 2 11 7 43 10 70 16 117 73 322 133 470 40 99 144 292 210 388 157
230 355 437 588 614 227 172 512 326 810 439 155 59 145 56 145 49z"/>
<path d="M6495 28141 c-127 -33 -204 -77 -288 -166 -47 -50 -107 -153 -122
-210 -5 -16 -10 -37 -12 -45 -13 -43 -11 -220 3 -279 42 -182 182 -335 360
-395 396 -134 765 101 787 504 15 266 -134 499 -373 581 -88 30 -255 35 -355
10z"/>
<path d="M7757 26994 c-1 -1 -22 -5 -47 -9 -308 -45 -556 -222 -679 -487 -32
-67 -59 -151 -67 -208 -2 -19 -7 -46 -10 -60 -7 -30 -6 -205 1 -240 3 -14 8
-41 11 -60 23 -132 105 -294 200 -396 121 -130 299 -224 499 -265 86 -17 305
-15 393 4 296 65 543 299 616 584 26 102 28 116 31 243 4 178 -23 301 -102
453 -54 107 -136 204 -230 273 -21 16 -40 31 -43 34 -3 3 -14 10 -25 16 -11 6
-33 18 -50 27 -70 38 -166 69 -255 83 -43 6 -238 13 -243 8z"/>
<path d="M16505 24989 c-44 -10 -93 -21 -110 -23 -43 -8 -74 -14 -125 -26 -25
-5 -58 -12 -75 -15 -85 -16 -133 -25 -271 -53 -82 -17 -166 -34 -185 -37 -19
-3 -50 -10 -69 -15 -19 -5 -53 -12 -75 -15 -22 -3 -46 -8 -52 -10 -10 -4 -13
-641 -13 -3143 l0 -3139 530 0 530 0 1 61 c2 297 0 6428 -2 6430 -2 2 -40 -5
-84 -15z"/>
<path d="M28437 24853 c-1 -1 -22 -4 -47 -8 -117 -17 -254 -84 -336 -165 -109
-106 -164 -235 -169 -400 -9 -252 105 -449 321 -559 82 -42 164 -62 269 -67
352 -14 614 240 615 596 0 315 -195 555 -486 596 -44 6 -163 11 -167 7z"/>
<path d="M12018 23045 c-1 -2 -43 -6 -92 -9 -48 -3 -91 -8 -95 -10 -3 -2 -29
-6 -56 -10 -120 -14 -307 -61 -455 -116 -144 -53 -365 -169 -349 -184 2 -2 29
-7 60 -10 46 -6 59 -3 78 13 44 38 217 116 326 147 192 54 303 69 525 69 166
-1 194 -3 330 -29 526 -102 887 -505 924 -1031 3 -33 5 -803 5 -1711 l1 -1651
530 0 531 0 -4 1566 c-3 1456 -4 1571 -21 1636 -10 39 -19 80 -22 92 -2 13
-16 55 -30 95 -175 487 -610 859 -1209 1037 -87 25 -225 58 -285 66 -24 4 -47
8 -50 10 -3 1 -36 6 -73 10 -37 3 -78 9 -90 11 -24 6 -473 14 -479 9z"/>
<path d="M19619 23046 c-2 -2 -42 -6 -89 -10 -47 -3 -101 -9 -120 -12 -62 -9
-194 -33 -217 -39 -13 -3 -31 -7 -41 -9 -171 -39 -368 -116 -530 -208 -79 -45
-79 -55 -1 -63 31 -3 50 2 82 22 63 40 213 108 287 131 77 24 233 58 310 68
73 10 357 11 441 2 556 -62 954 -418 1044 -933 16 -92 18 -313 18 -1826 l0
-1656 528 0 c479 0 529 1 532 16 7 29 0 2984 -7 3063 -50 540 -458 1033 -1051
1268 -316 125 -594 179 -966 185 -119 2 -218 2 -220 1z"/>
<path d="M24975 23039 c-71 -8 -113 -13 -195 -24 -73 -10 -273 -56 -295 -68
-11 -6 -21 -9 -23 -8 -5 5 -120 -32 -215 -70 -539 -215 -958 -598 -1207 -1104
-165 -334 -240 -679 -234 -1070 1 -82 5 -172 9 -200 4 -27 7 -57 7 -65 2 -69
72 -370 106 -453 7 -16 12 -32 12 -36 0 -5 18 -53 41 -107 86 -207 210 -410
363 -592 53 -64 218 -223 286 -277 41 -33 77 -62 80 -65 3 -3 39 -27 80 -54
41 -27 87 -57 101 -67 103 -69 368 -187 544 -242 95 -30 287 -73 365 -82 30
-4 57 -8 60 -10 28 -17 482 -26 620 -12 110 12 180 21 260 37 30 6 67 13 82
15 14 3 81 21 148 40 433 125 763 346 948 633 18 30 32 55 30 57 -1 1 -26 14
-54 28 l-51 26 -53 -80 c-60 -93 -185 -223 -284 -296 -375 -277 -921 -384
-1381 -272 -130 32 -317 110 -401 167 -6 4 -29 19 -50 33 -162 109 -336 301
-444 489 -180 310 -280 665 -320 1125 -7 90 -4 598 4 665 3 19 7 60 11 90 40
369 161 764 302 988 18 29 33 55 33 58 0 12 141 192 191 245 272 283 618 424
1035 422 87 0 215 -9 259 -17 38 -7 105 -18 110 -17 2 0 42 -11 87 -23 176
-49 290 -99 418 -183 58 -39 71 -43 125 -43 l60 0 -30 25 c-61 51 -193 135
-288 183 -189 97 -409 162 -662 197 -22 3 -56 8 -75 11 -53 10 -435 12 -515 3z"/>
<path d="M42625 23039 c-38 -4 -95 -10 -125 -14 -83 -9 -311 -57 -360 -76 -14
-5 -34 -11 -45 -14 -121 -25 -370 -150 -515 -258 -129 -95 -275 -267 -342
-402 -83 -166 -117 -322 -116 -519 3 -302 111 -554 333 -779 228 -231 500
-393 1075 -642 251 -109 289 -125 358 -157 26 -12 49 -22 52 -23 43 -12 370
-176 465 -233 339 -203 480 -403 469 -666 -11 -244 -169 -467 -421 -594 -138
-70 -333 -122 -528 -139 -299 -26 -629 11 -905 103 -109 36 -137 47 -230 93
-52 25 -58 26 -113 15 -32 -7 -60 -14 -63 -16 -8 -9 205 -108 309 -144 56 -20
147 -47 202 -60 55 -13 111 -27 125 -31 14 -3 30 -7 35 -7 6 -1 30 -5 55 -10
25 -4 59 -10 75 -12 17 -2 41 -6 55 -9 149 -26 590 -26 766 0 67 10 208 34
230 39 168 37 326 91 464 159 58 28 107 54 108 59 2 4 8 8 14 8 21 0 183 126
255 198 41 41 97 106 124 146 75 105 154 268 166 341 3 17 9 38 14 48 5 9 8
17 5 17 -3 0 0 15 5 33 19 66 27 257 15 367 -27 255 -131 464 -331 666 -208
210 -461 360 -965 575 -129 55 -244 104 -255 109 -11 5 -101 43 -200 85 -570
243 -826 420 -945 655 -35 68 -47 127 -49 231 -6 310 200 561 569 694 87 31
225 62 325 72 125 13 488 5 515 -12 3 -2 26 -6 51 -9 68 -8 272 -62 351 -92
55 -21 79 -25 121 -20 29 3 58 6 65 6 71 1 -227 116 -418 161 -47 11 -98 22
-115 25 -16 2 -41 6 -55 8 -58 10 -97 16 -135 21 -66 10 -465 12 -540 4z"/>
<path d="M32115 23024 c-221 -29 -481 -95 -640 -164 -424 -184 -745 -438 -993
-787 -73 -103 -207 -341 -227 -403 -1 -3 -7 -18 -14 -35 -38 -94 -78 -216 -97
-290 -4 -16 -8 -34 -10 -40 -12 -42 -42 -209 -51 -285 -16 -134 -7 -629 13
-661 2 -4 6 -27 9 -50 26 -207 144 -528 277 -755 101 -172 199 -296 357 -454
304 -302 665 -498 1121 -608 97 -24 217 -42 371 -57 l57 -5 4 39 c4 50 1 61
-22 61 -27 0 -146 39 -209 68 -148 68 -327 217 -432 357 -193 259 -328 595
-399 998 -12 64 -23 132 -24 150 -2 17 -7 52 -10 77 -13 91 -16 128 -23 265
-11 233 -5 668 11 750 2 11 7 49 11 85 3 36 8 76 10 90 2 14 7 45 10 70 4 25
16 88 27 140 10 52 21 105 24 117 12 59 77 271 107 350 101 261 219 448 386
613 141 139 331 248 483 277 10 1 23 4 30 5 18 4 24 24 20 64 -4 32 -6 34 -41
32 -20 -1 -81 -7 -136 -14z"/>
<path d="M32612 22994 c3 -44 6 -49 28 -52 35 -5 167 -50 215 -74 51 -26 154
-88 179 -108 72 -58 137 -121 211 -205 118 -135 271 -432 337 -655 61 -206
100 -393 123 -590 4 -30 9 -66 11 -80 25 -160 25 -831 -1 -991 -2 -13 -6 -49
-9 -79 -4 -30 -8 -66 -11 -80 -2 -14 -6 -43 -10 -65 -14 -99 -57 -289 -85
-380 -17 -55 -32 -107 -34 -115 -10 -42 -93 -236 -135 -316 -43 -82 -120 -204
-167 -265 -47 -60 -215 -219 -274 -257 -106 -70 -221 -119 -367 -158 -8 -2
-13 -21 -13 -49 l0 -46 73 6 c65 6 103 11 232 31 120 18 456 113 479 135 6 5
16 9 24 9 28 0 278 130 387 201 494 321 817 775 964 1354 18 71 27 123 46 245
26 173 24 570 -4 668 -5 17 -7 32 -5 35 3 3 -8 63 -41 207 -92 414 -368 865
-704 1150 -29 25 -65 55 -80 68 -57 49 -266 183 -370 236 -178 91 -420 178
-586 210 -28 6 -99 20 -105 21 -3 1 -32 5 -65 9 -33 5 -67 10 -75 11 -8 2 -50
6 -93 10 l-78 7 3 -48z"/>
<path d="M28969 22996 c-2 -2 -17 -6 -34 -9 -16 -3 -111 -22 -210 -42 -99 -20
-193 -39 -210 -42 -16 -2 -61 -11 -100 -20 -38 -8 -83 -17 -100 -19 -16 -3
-47 -10 -68 -15 -21 -6 -50 -12 -65 -14 -15 -2 -70 -13 -122 -24 -52 -12 -95
-21 -97 -21 -2 0 -3 -962 -3 -2139 l0 -2138 530 0 530 0 0 2243 0 2244 -23 0
c-13 0 -26 -2 -28 -4z"/>
<path d="M36770 22989 c-19 -5 -51 -11 -70 -14 -19 -4 -43 -8 -52 -11 -10 -3
-30 -8 -45 -10 -16 -3 -138 -28 -273 -55 -135 -27 -306 -62 -380 -76 -74 -15
-140 -31 -147 -36 -9 -6 -11 -358 -9 -1520 1 -832 5 -1521 8 -1533 4 -12 9
-45 13 -74 28 -223 154 -501 309 -685 145 -173 289 -286 491 -387 86 -42 277
-111 340 -122 17 -2 55 -9 85 -15 107 -20 136 -23 265 -26 456 -13 921 157
1275 464 35 31 35 31 35 116 0 47 0 85 -1 85 -1 0 -20 -17 -42 -37 -134 -126
-273 -214 -444 -282 -162 -64 -381 -92 -534 -70 -191 29 -344 107 -479 245
-120 123 -201 284 -239 476 -21 106 -21 117 -21 1842 l0 1736 -25 -1 c-14 -1
-41 -5 -60 -10z"/>
<path d="M39835 22974 c-55 -13 -115 -25 -133 -28 -18 -4 -68 -13 -110 -22
-42 -9 -88 -18 -102 -20 -14 -3 -101 -21 -195 -40 -93 -19 -206 -42 -250 -50
-44 -8 -87 -17 -97 -20 -15 -4 -16 -156 -15 -2142 l2 -2137 528 -1 527 -1 0
31 c0 17 2 1027 3 2244 l2 2212 -30 -2 c-16 -1 -75 -12 -130 -24z"/>
<path d="M43860 22616 c-156 -51 -262 -151 -316 -296 -21 -59 -27 -203 -10
-266 46 -173 175 -298 355 -343 199 -51 398 22 505 183 67 101 95 264 67 387
-35 152 -132 269 -273 327 -87 36 -233 40 -328 8z"/>
<path d="M10828 22509 c-120 -18 -234 -72 -311 -147 -260 -252 -192 -699 129
-853 232 -111 482 -73 652 98 23 24 42 45 42 48 0 2 14 26 30 52 27 43 50 101
66 174 3 13 6 58 6 99 2 335 -282 579 -614 529z"/>
<path d="M18425 22512 c-84 -9 -206 -56 -270 -105 -137 -105 -205 -235 -211
-403 -9 -242 126 -442 351 -523 220 -78 452 -24 597 138 87 97 126 199 133
341 9 208 -100 402 -277 496 -40 21 -75 37 -78 36 -3 -1 -23 3 -44 9 -41 11
-148 17 -201 11z"/>
<path d="M26233 22389 c-247 -62 -403 -260 -403 -509 0 -154 48 -274 150 -378
110 -110 253 -164 424 -158 160 5 265 50 367 158 94 99 141 226 141 382 0 252
-154 450 -397 513 -55 14 -214 10 -282 -8z"/>
<path d="M11748 20965 c-2 -1 -46 -5 -98 -9 -52 -3 -104 -8 -115 -10 -11 -2
-47 -7 -80 -11 -32 -3 -62 -8 -65 -10 -3 -2 -25 -6 -49 -10 -25 -4 -78 -15
-120 -26 -42 -11 -83 -21 -91 -23 -133 -33 -391 -148 -521 -233 -306 -197
-497 -463 -554 -768 -95 -506 193 -1007 725 -1263 365 -175 778 -221 1245
-137 17 3 38 8 47 11 9 3 25 6 35 8 85 17 288 83 373 123 68 31 196 95 230
115 52 31 173 112 185 123 11 11 14 125 3 125 -4 0 -38 -19 -75 -43 -127 -81
-314 -158 -453 -186 -30 -6 -68 -13 -85 -17 -16 -3 -97 -7 -180 -9 -130 -3
-164 0 -255 21 -441 101 -710 478 -714 999 -1 127 7 246 18 263 2 4 7 23 10
42 33 204 190 448 361 559 22 14 42 29 45 32 8 10 118 63 180 87 60 23 184 58
240 66 164 26 406 26 595 0 41 -5 45 -6 105 -17 19 -4 46 -9 60 -11 14 -3 52
-12 84 -21 32 -8 61 -14 63 -11 2 2 5 17 5 32 1 68 0 71 -44 83 -97 27 -114
32 -133 36 -41 10 -221 44 -260 50 -22 3 -51 7 -65 9 -14 3 -51 7 -84 11 -32
4 -74 9 -95 11 -40 5 -468 13 -473 9z"/>
<path d="M19298 20965 c-2 -1 -39 -5 -83 -9 -76 -7 -185 -21 -231 -30 -12 -2
-39 -7 -60 -10 -22 -4 -57 -11 -79 -17 -22 -6 -51 -13 -65 -16 -50 -8 -287
-92 -365 -128 -400 -185 -665 -470 -761 -816 -48 -174 -41 -411 17 -588 126
-384 475 -701 925 -840 100 -31 215 -57 289 -67 22 -3 58 -7 80 -10 81 -10
312 -12 400 -3 233 24 469 81 660 160 82 34 236 110 290 144 69 43 165 109
166 114 4 22 4 121 -1 121 -3 0 -29 -16 -57 -35 -29 -19 -55 -35 -58 -35 -3 0
-24 -12 -47 -26 -23 -14 -46 -27 -52 -28 -6 -1 -31 -12 -56 -23 -72 -33 -214
-76 -290 -88 -19 -3 -60 -9 -90 -14 -53 -9 -288 -8 -340 1 -182 32 -332 106
-463 228 -228 213 -335 544 -304 936 4 45 9 88 11 95 3 8 7 28 10 44 26 156
124 348 237 465 132 136 339 245 544 285 139 27 357 36 530 21 140 -12 184
-20 411 -73 19 -4 20 0 20 47 -1 35 -6 54 -16 60 -24 13 -256 67 -365 85 -135
22 -140 23 -215 30 -36 4 -78 9 -95 11 -31 5 -492 13 -497 9z"/>
<path d="M41460 19869 c-130 -18 -261 -97 -331 -199 -73 -106 -99 -265 -64
-394 43 -163 170 -286 340 -330 66 -17 236 -17 270 1 11 5 45 22 75 36 265
129 326 528 114 753 -98 105 -248 154 -404 133z"/>
<path d="M798 19675 c-2 -1 -25 -5 -53 -9 -74 -9 -191 -43 -265 -78 -232 -110
-410 -327 -456 -558 -2 -8 -8 -37 -13 -65 -13 -66 -6 -296 12 -365 20 -78 64
-183 105 -253 42 -70 147 -184 215 -233 48 -35 197 -116 197 -108 0 2 12 -2
28 -9 28 -15 134 -41 212 -53 101 -16 278 -3 380 28 265 79 462 271 550 537
38 116 42 136 45 286 4 147 -4 203 -46 329 -95 285 -333 488 -636 541 -72 13
-264 20 -275 10z"/>
</g>
</svg>
